<?xml version="1.0" encoding="utf-8"?>
<!-- Generator: Adobe Illustrator 16.0.0, SVG Export Plug-In . SVG Version: 6.00 Build 0)  -->
<!DOCTYPE svg PUBLIC "-//W3C//DTD SVG 1.1//EN" "http://www.w3.org/Graphics/SVG/1.1/DTD/svg11.dtd">
<svg version="1.1" xmlns="http://www.w3.org/2000/svg" xmlns:xlink="http://www.w3.org/1999/xlink" x="0px" y="0px"
	 width="121.311px" height="121.166px" viewBox="0 0 121.311 121.166" enable-background="new 0 0 121.311 121.166"
	 xml:space="preserve">
<g id="Layer_1" display="none">
</g>
<g id="Layer_2">
	<path d="M4.473,29.08c1.719,0,3.115-1.399,3.115-3.119c0-1.479-1.037-2.714-2.422-3.031V0H3.781v3.345H0v1.385h3.781v11.017H0
		v0.577h3.781v6.606c-1.164,0.265-2.078,1.178-2.344,2.339H0v1.385h1.438C1.754,28.04,2.992,29.08,4.473,29.08z M4.473,24.231
		c0.955,0,1.73,0.776,1.73,1.73c0,0.957-0.775,1.734-1.73,1.734s-1.734-0.778-1.734-1.734C2.738,25.007,3.518,24.231,4.473,24.231z
		 M25.646,71.543V53.372L12.953,40.679V30.165c1.385-0.316,2.424-1.554,2.424-3.036c0-1.718-1.396-3.115-3.115-3.115
		s-3.119,1.397-3.119,3.115c0,1.48,1.039,2.717,2.426,3.035v11.088l12.693,12.693V70.97l-7.672,7.672H0v1.385h17.164L25.646,71.543z
		 M10.527,27.129c0-0.954,0.779-1.73,1.734-1.73s1.73,0.776,1.73,1.73c0,0.957-0.775,1.734-1.73,1.734S10.527,28.085,10.527,27.129z
		 M7.588,114.924c0-1.717-1.396-3.114-3.115-3.114s-3.119,1.397-3.119,3.114c0,1.48,1.041,2.719,2.428,3.035v3.207h1.385v-3.207
		C6.551,117.643,7.588,116.404,7.588,114.924z M4.473,116.658c-0.955,0-1.734-0.777-1.734-1.734c0-0.953,0.779-1.729,1.734-1.729
		s1.73,0.776,1.73,1.729C6.203,115.881,5.428,116.658,4.473,116.658z M15.377,109.42c0-1.718-1.396-3.115-3.115-3.115
		c-0.756,0-1.439,0.281-1.98,0.729l-3.217-3.216H0v0.578h6.826l3.047,3.046c-0.449,0.54-0.73,1.224-0.73,1.978
		c0,1.48,1.039,2.719,2.426,3.035v8.711h1.385v-8.709C14.338,112.141,15.377,110.902,15.377,109.42z M12.262,111.155
		c-0.955,0-1.734-0.778-1.734-1.735c0-0.954,0.779-1.73,1.734-1.73s1.73,0.776,1.73,1.73
		C13.992,110.377,13.217,111.155,12.262,111.155z M79.336,82.452c1.719,0,3.115-1.399,3.115-3.12c0-1.719-1.396-3.116-3.115-3.116
		c-1.721,0-3.119,1.397-3.119,3.116C76.217,81.053,77.615,82.452,79.336,82.452z M79.336,77.601c0.955,0,1.73,0.776,1.73,1.731
		c0,0.957-0.775,1.735-1.73,1.735c-0.957,0-1.734-0.778-1.734-1.735C77.602,78.377,78.379,77.601,79.336,77.601z M35.305,71.757
		c-1.719,0-3.119,1.397-3.119,3.114c0,1.721,1.4,3.119,3.119,3.119c1.48,0,2.717-1.039,3.033-2.427h2.512v7.376l-9.664,9.593v12.901
		h-4.338c-0.139-0.924-0.93-1.637-1.891-1.637c-1.063,0-1.928,0.863-1.928,1.925s0.865,1.925,1.928,1.925
		c0.961,0,1.752-0.713,1.891-1.637h4.338l0.002,8.804c-1.387,0.315-2.428,1.552-2.428,3.031c0,1.72,1.4,3.12,3.119,3.12
		s3.117-1.4,3.117-3.12c0-1.479-1.039-2.715-2.424-3.031L32.57,93.108l9.664-9.591v-9.339h-3.898
		C38.02,72.795,36.785,71.757,35.305,71.757z M35.305,76.605c-0.955,0-1.734-0.777-1.734-1.734c0-0.953,0.779-1.729,1.734-1.729
		s1.73,0.776,1.73,1.729C37.035,75.828,36.26,76.605,35.305,76.605z M24.957,107.07c-0.744,0-1.352-0.605-1.352-1.349
		s0.607-1.347,1.352-1.347c0.74,0,1.344,0.604,1.344,1.347S25.697,107.07,24.957,107.07z M33.611,117.845
		c0,0.957-0.777,1.735-1.732,1.735s-1.734-0.778-1.734-1.735c0-0.954,0.779-1.729,1.734-1.729S33.611,116.891,33.611,117.845z
		 M98.355,89.664c1.717,0,3.113-1.4,3.113-3.12c0-1.479-1.037-2.716-2.422-3.032l-0.002-1.785l8.387-8.389v-3.19
		c1.387-0.315,2.426-1.555,2.426-3.036c0-1.717-1.396-3.115-3.115-3.115c-1.721,0-3.119,1.398-3.119,3.115
		c0,1.48,1.039,2.717,2.424,3.035v2.617l-2.836,2.838l-2.982-2.982c0.236-0.32,0.379-0.711,0.379-1.139
		c0-1.061-0.861-1.924-1.922-1.924c-1.063,0-1.928,0.863-1.928,1.924c0,1.063,0.865,1.926,1.928,1.926
		c0.426,0,0.816-0.145,1.135-0.379l2.982,2.982l-5.143,5.143l0.002,2.359c-1.387,0.316-2.428,1.553-2.428,3.032
		C95.234,88.264,96.635,89.664,98.355,89.664z M105.008,67.111c0-0.954,0.777-1.73,1.734-1.73c0.955,0,1.73,0.776,1.73,1.73
		c0,0.957-0.775,1.734-1.73,1.734C105.785,68.846,105.008,68.068,105.008,67.111z M98.686,72.829c-0.744,0-1.352-0.604-1.352-1.349
		c0-0.742,0.607-1.347,1.352-1.347c0.742,0,1.346,0.604,1.346,1.347C100.031,72.225,99.428,72.829,98.686,72.829z M98.355,84.813
		c0.953,0,1.729,0.777,1.729,1.731c0,0.957-0.775,1.735-1.729,1.735c-0.957,0-1.736-0.778-1.736-1.735
		C96.619,85.59,97.398,84.813,98.355,84.813z M115.975,0.922c-1.721,0-3.119,1.396-3.119,3.113c0,1.72,1.398,3.12,3.119,3.12
		c1.48,0,2.717-1.041,3.031-2.427l2.305,0.001V3.345l-2.305-0.001C118.689,1.959,117.453,0.922,115.975,0.922z M115.975,5.771
		c-0.957,0-1.734-0.778-1.734-1.735c0-0.953,0.777-1.729,1.734-1.729c0.955,0,1.73,0.775,1.73,1.729
		C117.705,4.992,116.93,5.771,115.975,5.771z M37.361,34.379c0.961,0,1.752-0.712,1.893-1.636h2.996
		c0.141,0.924,0.934,1.636,1.896,1.636c1.061,0,1.922-0.863,1.922-1.924c0-1.062-0.861-1.925-1.922-1.925
		c-0.963,0-1.756,0.713-1.896,1.637h-2.996c-0.141-0.924-0.932-1.637-1.893-1.637c-1.063,0-1.928,0.864-1.928,1.925
		C35.434,33.516,36.299,34.379,37.361,34.379z M44.146,31.107c0.742,0,1.346,0.605,1.346,1.348c0,0.743-0.604,1.347-1.346,1.347
		c-0.744,0-1.35-0.604-1.35-1.347C42.797,31.712,43.402,31.107,44.146,31.107z M37.361,31.107c0.742,0,1.346,0.605,1.346,1.348
		c0,0.743-0.604,1.347-1.346,1.347c-0.744,0-1.352-0.604-1.352-1.347C36.01,31.712,36.617,31.107,37.361,31.107z M31.881,21.113
		c0.961,0,1.752-0.712,1.893-1.636h7.318c0.141,0.924,0.934,1.636,1.898,1.636c1.059,0,1.92-0.863,1.92-1.924
		c0-1.062-0.861-1.925-1.92-1.925c-0.965,0-1.758,0.713-1.898,1.637h-7.318c-0.141-0.924-0.932-1.637-1.893-1.637
		c-1.063,0-1.928,0.864-1.928,1.925C29.953,20.25,30.818,21.113,31.881,21.113z M42.99,17.84c0.74,0,1.344,0.605,1.344,1.348
		c0,0.743-0.604,1.347-1.344,1.347c-0.744,0-1.352-0.604-1.352-1.347C41.639,18.445,42.246,17.84,42.99,17.84z M31.881,17.84
		c0.742,0,1.346,0.605,1.346,1.348c0,0.743-0.604,1.347-1.346,1.347c-0.744,0-1.352-0.604-1.352-1.347
		C30.529,18.445,31.137,17.84,31.881,17.84z M64.863,11.684c0,1.061,0.863,1.924,1.928,1.924c1.059,0,1.92-0.863,1.92-1.924
		c0-0.964-0.713-1.757-1.637-1.896V0h-0.576v9.788C65.574,9.93,64.863,10.722,64.863,11.684z M66.791,10.335
		c0.74,0,1.344,0.605,1.344,1.348c0,0.743-0.604,1.347-1.344,1.347c-0.746,0-1.352-0.604-1.352-1.347
		C65.439,10.94,66.045,10.335,66.791,10.335z M72.754,9.788c-0.924,0.14-1.639,0.933-1.639,1.896c0,1.061,0.865,1.924,1.928,1.924
		c1.059,0,1.922-0.863,1.922-1.924c0-0.962-0.711-1.755-1.635-1.896V1.402L74.732,0h-0.814l-1.164,1.163V9.788z M74.389,11.684
		c0,0.743-0.604,1.347-1.346,1.347c-0.744,0-1.352-0.604-1.352-1.347c0-0.743,0.607-1.348,1.352-1.348
		C73.785,10.335,74.389,10.94,74.389,11.684z M94.193,2.111c-1.063,0-1.928,0.864-1.928,1.925c0,0.962,0.715,1.755,1.641,1.895
		l-0.004,3.424l-10.805-0.03l-3.189-3.461c0.781-0.245,1.352-0.967,1.352-1.828c0-1.062-0.861-1.925-1.92-1.925
		c-1.064,0-1.928,0.864-1.928,1.925c0,1.014,0.791,1.838,1.789,1.91l3.643,3.955l11.635,0.033l0.004-4.003
		c0.922-0.141,1.633-0.933,1.633-1.895C96.115,2.975,95.254,2.111,94.193,2.111z M77.988,4.036c0-0.743,0.605-1.348,1.352-1.348
		c0.74,0,1.344,0.605,1.344,1.348c0,0.743-0.604,1.347-1.344,1.347C78.594,5.383,77.988,4.779,77.988,4.036z M94.193,5.383
		c-0.744,0-1.352-0.604-1.352-1.347c0-0.743,0.607-1.348,1.352-1.348c0.742,0,1.346,0.605,1.346,1.348
		C95.539,4.779,94.936,5.383,94.193,5.383z M93.889,42.89c1.059,0,1.92-0.863,1.92-1.924c0-0.427-0.143-0.817-0.379-1.137
		l8.459-8.458l5.637,0c0.141,0.923,0.934,1.636,1.898,1.636c0.961,0,1.752-0.712,1.891-1.636h2.705
		c0.141,0.923,0.934,1.636,1.898,1.636c1.059,0,1.92-0.863,1.92-1.924c0-1.062-0.861-1.925-1.92-1.925
		c-0.965,0-1.758,0.712-1.898,1.637h-2.705c-0.139-0.924-0.93-1.637-1.891-1.637c-0.965,0-1.758,0.712-1.898,1.637l-5.875,0
		l-8.629,8.627c-0.318-0.235-0.707-0.379-1.133-0.379c-1.064,0-1.928,0.864-1.928,1.925C91.961,42.026,92.824,42.89,93.889,42.89z
		 M117.918,29.733c0.74,0,1.344,0.605,1.344,1.348c0,0.743-0.604,1.347-1.344,1.347c-0.744,0-1.352-0.604-1.352-1.347
		C116.566,30.338,117.174,29.733,117.918,29.733z M111.424,29.733c0.74,0,1.344,0.605,1.344,1.348c0,0.743-0.604,1.347-1.344,1.347
		c-0.744,0-1.352-0.604-1.352-1.347C110.072,30.338,110.68,29.733,111.424,29.733z M93.889,39.617c0.74,0,1.344,0.605,1.344,1.348
		c0,0.743-0.604,1.347-1.344,1.347c-0.746,0-1.352-0.604-1.352-1.347C92.537,40.222,93.143,39.617,93.889,39.617z M94.193,12.997
		c-0.963,0-1.758,0.712-1.898,1.636h-7.883c-0.141-0.924-0.932-1.636-1.893-1.636c-1.063,0-1.928,0.864-1.928,1.925
		c0,1.061,0.865,1.924,1.928,1.924c0.961,0,1.752-0.712,1.893-1.636h7.883c0.141,0.924,0.934,1.636,1.898,1.636
		c1.061,0,1.922-0.863,1.922-1.924C96.115,13.861,95.254,12.997,94.193,12.997z M82.52,16.27c-0.744,0-1.352-0.604-1.352-1.347
		c0-0.743,0.607-1.348,1.352-1.348c0.742,0,1.346,0.605,1.346,1.348C83.865,15.665,83.262,16.27,82.52,16.27z M94.193,16.27
		c-0.744,0-1.352-0.604-1.352-1.347c0-0.743,0.607-1.348,1.352-1.348c0.742,0,1.346,0.605,1.346,1.348
		C95.539,15.665,94.936,16.27,94.193,16.27z M103.717,17.898c-0.32-0.235-0.709-0.378-1.133-0.378c-1.063,0-1.928,0.864-1.928,1.925
		c0,1.061,0.865,1.924,1.928,1.924c1.059,0,1.922-0.863,1.922-1.924c0-0.428-0.145-0.819-0.381-1.139l3.012-3.015V0h-0.576v15.052
		L103.717,17.898z M102.584,20.792c-0.744,0-1.352-0.604-1.352-1.347c0-0.743,0.607-1.348,1.352-1.348
		c0.742,0,1.346,0.605,1.346,1.348C103.93,20.188,103.326,20.792,102.584,20.792z M114.121,18.309
		c-0.234,0.32-0.379,0.71-0.379,1.137c0,1.061,0.863,1.924,1.928,1.924c1.059,0,1.92-0.863,1.92-1.924
		c0-1.062-0.861-1.925-1.92-1.925c-0.428,0-0.82,0.145-1.141,0.381l-4.666-4.667V0h-0.576v13.473L114.121,18.309z M115.67,18.097
		c0.74,0,1.344,0.605,1.344,1.348c0,0.743-0.604,1.347-1.344,1.347c-0.746,0-1.352-0.604-1.352-1.347
		C114.318,18.702,114.924,18.097,115.67,18.097z M117.211,12.82c0.236-0.319,0.379-0.71,0.379-1.137c0-1.062-0.861-1.925-1.92-1.925
		c-1.064,0-1.928,0.864-1.928,1.925c0,1.061,0.863,1.924,1.928,1.924c0.426,0,0.814-0.144,1.133-0.379l3.096,3.095h1.412v-0.577
		h-1.174L117.211,12.82z M115.67,13.031c-0.746,0-1.352-0.604-1.352-1.347c0-0.743,0.605-1.348,1.352-1.348
		c0.74,0,1.344,0.605,1.344,1.348C117.014,12.426,116.41,13.031,115.67,13.031z M58.732,11.684c0,1.061,0.865,1.924,1.928,1.924
		c1.059,0,1.922-0.863,1.922-1.924c0-0.963-0.713-1.757-1.637-1.896V0h-0.576v9.788C59.445,9.929,58.732,10.722,58.732,11.684z
		 M60.66,10.335c0.742,0,1.346,0.605,1.346,1.348c0,0.743-0.604,1.347-1.346,1.347c-0.744,0-1.352-0.604-1.352-1.347
		C59.309,10.94,59.916,10.335,60.66,10.335z M44.146,38.031c-0.963,0-1.756,0.711-1.896,1.635h-2.996
		c-0.141-0.924-0.932-1.635-1.893-1.635c-1.063,0-1.928,0.863-1.928,1.924c0,1.062,0.865,1.926,1.928,1.926
		c0.961,0,1.752-0.712,1.893-1.637h2.996c0.141,0.925,0.934,1.637,1.896,1.637c1.061,0,1.922-0.864,1.922-1.926
		C46.068,38.894,45.207,38.031,44.146,38.031z M37.361,41.304c-0.744,0-1.352-0.605-1.352-1.349c0-0.743,0.607-1.347,1.352-1.347
		c0.742,0,1.346,0.604,1.346,1.347C38.707,40.699,38.104,41.304,37.361,41.304z M44.146,41.304c-0.744,0-1.35-0.605-1.35-1.349
		c0-0.743,0.605-1.347,1.35-1.347c0.742,0,1.346,0.604,1.346,1.347C45.492,40.699,44.889,41.304,44.146,41.304z M29.246,34.551
		c-0.303,0.479-0.486,1.043-0.486,1.65c0,1.622,1.248,2.943,2.832,3.091v1.921l4.709,4.709v14.617
		c-0.924,0.142-1.637,0.934-1.637,1.895c0,1.062,0.865,1.926,1.928,1.926c1.059,0,1.92-0.864,1.92-1.926
		c0-0.963-0.711-1.756-1.635-1.896V46.092h5.373c0.141,0.924,0.934,1.637,1.896,1.637c1.061,0,1.922-0.864,1.922-1.925
		c0-1.061-0.861-1.924-1.922-1.924c-0.963,0-1.756,0.712-1.896,1.636h-5.543l-4.539-4.54v-1.682
		c1.582-0.148,2.828-1.469,2.828-3.091c0-1.717-1.398-3.114-3.117-3.114c-0.609,0-1.174,0.182-1.654,0.485L12.953,16.301V0h-1.385
		v16.875L29.246,34.551z M44.146,44.457c0.742,0,1.346,0.604,1.346,1.347c0,0.743-0.604,1.348-1.346,1.348
		c-0.744,0-1.35-0.605-1.35-1.348C42.797,45.061,43.402,44.457,44.146,44.457z M37.936,62.436c0,0.743-0.604,1.348-1.344,1.348
		c-0.744,0-1.352-0.604-1.352-1.348c0-0.743,0.607-1.347,1.352-1.347C37.332,61.088,37.936,61.693,37.936,62.436z M31.879,34.473
		c0.955,0,1.732,0.775,1.732,1.729c0,0.957-0.777,1.736-1.732,1.736s-1.734-0.779-1.734-1.736
		C30.145,35.248,30.924,34.473,31.879,34.473z M29.246,24.31c-0.303,0.48-0.486,1.043-0.486,1.651c0,1.72,1.4,3.119,3.119,3.119
		c1.48,0,2.717-1.041,3.033-2.427h13.293v25.613l-5.914,5.915v7.598l6.324,6.17h2.42v4.91c-0.924,0.141-1.637,0.933-1.637,1.895
		c0,1.062,0.865,1.926,1.928,1.926c1.059,0,1.922-0.864,1.922-1.926c0-0.963-0.713-1.756-1.637-1.895v-4.91h6.082
		c0.318,1.386,1.555,2.426,3.035,2.426c1.479,0,2.715-1.041,3.031-2.429h15.508c0.316,1.388,1.555,2.429,3.037,2.429
		c1.719,0,3.115-1.4,3.115-3.121c0-1.718-1.396-3.115-3.115-3.115c-1.48,0-2.719,1.038-3.037,2.423H63.76
		c-0.316-1.385-1.553-2.423-3.031-2.423c-1.482,0-2.721,1.039-3.035,2.426H49.18l-5.504-5.369v-6.441l5.914-5.915V41.655h8.104
		c0.316,1.387,1.553,2.427,3.035,2.427c1.717,0,3.115-1.399,3.115-3.12c0-1.718-1.398-3.116-3.115-3.116
		c-1.48,0-2.719,1.039-3.035,2.423H49.59V26.653v-0.692V0h-1.385v25.269H34.912c-0.316-1.384-1.553-2.422-3.033-2.422
		c-0.609,0-1.174,0.182-1.654,0.485L18.916,12.022V8.148h5.752v1.64c-0.926,0.14-1.639,0.933-1.639,1.896
		c0,1.061,0.863,1.924,1.928,1.924c1.059,0,1.92-0.863,1.92-1.924c0-0.962-0.711-1.755-1.633-1.896V5.931
		c0.922-0.141,1.633-0.933,1.633-1.895c0-1.062-0.861-1.925-1.92-1.925c-1.064,0-1.928,0.864-1.928,1.925
		c0,0.962,0.713,1.755,1.639,1.895v1.64h-5.752V0h-1.385v12.596L29.246,24.31z M82.305,69.523c0.955,0,1.73,0.775,1.73,1.73
		c0,0.957-0.775,1.736-1.73,1.736c-0.957,0-1.736-0.779-1.736-1.736C80.568,70.299,81.348,69.523,82.305,69.523z M60.729,69.523
		c0.953,0,1.73,0.775,1.73,1.73c0,0.957-0.777,1.736-1.73,1.736c-0.957,0-1.734-0.779-1.734-1.736
		C58.994,70.299,59.771,69.523,60.729,69.523z M52.672,78.754c0,0.743-0.604,1.348-1.346,1.348c-0.744,0-1.352-0.604-1.352-1.348
		c0-0.742,0.607-1.348,1.352-1.348C52.068,77.406,52.672,78.012,52.672,78.754z M60.729,39.232c0.953,0,1.73,0.776,1.73,1.731
		c0,0.957-0.777,1.735-1.73,1.735c-0.957,0-1.734-0.778-1.734-1.735C58.994,40.008,59.771,39.232,60.729,39.232z M31.879,24.231
		c0.955,0,1.732,0.776,1.732,1.73c0,0.957-0.777,1.734-1.732,1.734s-1.734-0.778-1.734-1.734
		C30.145,25.007,30.924,24.231,31.879,24.231z M23.605,4.036c0-0.743,0.605-1.348,1.352-1.348c0.74,0,1.344,0.605,1.344,1.348
		c0,0.743-0.604,1.347-1.344,1.347C24.211,5.383,23.605,4.779,23.605,4.036z M24.957,10.335c0.74,0,1.344,0.605,1.344,1.348
		c0,0.743-0.604,1.347-1.344,1.347c-0.746,0-1.352-0.604-1.352-1.347C23.605,10.94,24.211,10.335,24.957,10.335z M5.115,37.928
		c1.41-0.297,2.473-1.552,2.473-3.051c0-1.717-1.396-3.114-3.115-3.114s-3.119,1.397-3.119,3.114c0,1.463,1.018,2.685,2.377,3.021
		v3.402l13.801,13.8v4.612c-1.387,0.317-2.426,1.553-2.426,3.032c0,1.722,1.4,3.121,3.121,3.121c1.717,0,3.115-1.399,3.115-3.121
		c0-1.48-1.039-2.717-2.426-3.033v-5.185l-13.801-13.8V37.928z M19.957,62.743c0,0.958-0.777,1.736-1.73,1.736
		c-0.957,0-1.736-0.778-1.736-1.736c0-0.955,0.779-1.731,1.736-1.731C19.18,61.012,19.957,61.789,19.957,62.743z M2.738,34.877
		c0-0.954,0.779-1.729,1.734-1.729s1.73,0.776,1.73,1.729c0,0.957-0.775,1.735-1.73,1.735S2.738,35.833,2.738,34.877z
		 M30.322,51.508L18.916,40.102v-4.613c1.387-0.316,2.426-1.554,2.426-3.036c0-1.718-1.398-3.116-3.115-3.116
		c-1.721,0-3.121,1.398-3.121,3.116c0,1.481,1.039,2.718,2.426,3.036v5.187l11.406,11.407v26.965l-6.809,6.807h-6.447
		c-0.314-1.387-1.553-2.426-3.031-2.426c-1.721,0-3.119,1.398-3.119,3.116c0,1.72,1.398,3.12,3.119,3.12
		c1.479,0,2.713-1.039,3.031-2.426h7.021l7.619-7.617V51.508z M16.49,32.453c0-0.955,0.779-1.731,1.736-1.731
		c0.953,0,1.73,0.776,1.73,1.731c0,0.957-0.777,1.735-1.73,1.735C17.27,34.188,16.49,33.409,16.49,32.453z M12.65,88.279
		c-0.957,0-1.734-0.778-1.734-1.735c0-0.954,0.777-1.731,1.734-1.731c0.953,0,1.73,0.777,1.73,1.731
		C14.381,87.501,13.604,88.279,12.65,88.279z M41.561,91.153h11.881l11.115-11.118h4.68c0.32,1.381,1.555,2.417,3.031,2.417
		c1.719,0,3.115-1.399,3.115-3.12c0-1.719-1.396-3.116-3.115-3.116c-1.484,0-2.725,1.044-3.039,2.435h-5.246L52.867,89.769H40.986
		l-4.32,4.321v27.076h1.385V94.662L41.561,91.153z M72.268,77.601c0.955,0,1.73,0.776,1.73,1.731c0,0.957-0.775,1.735-1.73,1.735
		s-1.734-0.778-1.734-1.735C70.533,78.377,71.313,77.601,72.268,77.601z M55.676,62.054h-3.742
		c-0.316-1.386-1.553-2.426-3.033-2.426c-1.721,0-3.121,1.398-3.121,3.116c0,1.722,1.4,3.121,3.121,3.121
		c1.479,0,2.715-1.04,3.031-2.426h4.326l7.184-7.323h5.791c0.316,1.388,1.555,2.428,3.035,2.428c1.719,0,3.115-1.4,3.115-3.121
		c0-1.718-1.396-3.116-3.115-3.116c-1.48,0-2.719,1.039-3.035,2.423h-6.373L55.676,62.054z M48.9,64.479
		c-0.957,0-1.736-0.778-1.736-1.736c0-0.955,0.779-1.731,1.736-1.731c0.955,0,1.73,0.776,1.73,1.731
		C50.631,63.701,49.855,64.479,48.9,64.479z M72.268,53.692c0.955,0,1.73,0.776,1.73,1.731c0,0.957-0.775,1.736-1.73,1.736
		s-1.734-0.779-1.734-1.736C70.533,54.469,71.313,53.692,72.268,53.692z M93.904,31.763h-4.467
		c-0.316-1.386-1.553-2.426-3.033-2.426c-1.721,0-3.121,1.398-3.121,3.116c0,1.72,1.4,3.12,3.121,3.12
		c1.479,0,2.715-1.039,3.031-2.425h5.043l6.49-6.492h20.342v-1.385h-20.916L93.904,31.763z M86.404,34.188
		c-0.957,0-1.736-0.778-1.736-1.735c0-0.955,0.779-1.731,1.736-1.731c0.955,0,1.73,0.776,1.73,1.731
		C88.135,33.409,87.359,34.188,86.404,34.188z M119.422,65.664l-6.158-6.16c0.303-0.481,0.484-1.046,0.484-1.655
		c0-1.718-1.396-3.116-3.115-3.116c-1.48,0-2.719,1.039-3.037,2.423h-5.879c-0.316-1.385-1.553-2.423-3.031-2.423
		c-1.482,0-2.721,1.039-3.037,2.423l-8.555,0.001V44c1.387-0.315,2.426-1.555,2.426-3.037c0-1.718-1.396-3.116-3.115-3.116
		c-1.721,0-3.121,1.398-3.121,3.116c0,1.48,1.041,2.718,2.426,3.035v13.16l-3.176,0v-6.906l-7.635-7.635
		c0.303-0.481,0.484-1.046,0.484-1.655c0-1.718-1.396-3.116-3.115-3.116s-3.119,1.398-3.119,3.116c0,1.72,1.4,3.12,3.119,3.12
		c0.609,0,1.172-0.183,1.652-0.485l7.229,7.229v6.333l-2.615,0l-4.895,4.892h-3.82c-0.316-1.385-1.553-2.423-3.031-2.423
		c-1.721,0-3.121,1.398-3.121,3.116c0,1.722,1.4,3.121,3.121,3.121c1.48,0,2.717-1.04,3.033-2.429h4.393l4.895-4.892l16.541-0.002
		c0.316,1.386,1.555,2.426,3.037,2.426c1.48,0,2.717-1.04,3.031-2.426h5.879c0.316,1.386,1.557,2.426,3.037,2.426
		c0.607,0,1.172-0.182,1.65-0.484l5.754,5.753v13.79h3.273v-1.385h-1.889V65.664z M72.268,42.698c-0.955,0-1.734-0.778-1.734-1.735
		c0-0.955,0.779-1.731,1.734-1.731s1.73,0.776,1.73,1.731C73.998,41.919,73.223,42.698,72.268,42.698z M66.787,64.479
		c-0.957,0-1.736-0.778-1.736-1.736c0-0.955,0.779-1.731,1.736-1.731c0.955,0,1.73,0.776,1.73,1.731
		C68.518,63.701,67.742,64.479,66.787,64.479z M84.668,40.963c0-0.955,0.779-1.731,1.736-1.731c0.955,0,1.73,0.776,1.73,1.731
		c0,0.957-0.775,1.735-1.73,1.735C85.447,42.698,84.668,41.919,84.668,40.963z M98.686,59.583c-0.957,0-1.736-0.778-1.736-1.733
		c0-0.955,0.779-1.731,1.736-1.731c0.955,0,1.73,0.776,1.73,1.731C100.416,58.805,99.641,59.583,98.686,59.583z M110.633,59.583
		c-0.957,0-1.736-0.778-1.736-1.733c0-0.955,0.779-1.731,1.736-1.731c0.955,0,1.73,0.776,1.73,1.731
		C112.363,58.805,111.588,59.583,110.633,59.583z M87.094,85.697c1.387-0.316,2.426-1.555,2.426-3.037
		c0-1.717-1.396-3.114-3.115-3.114c-1.721,0-3.121,1.397-3.121,3.114c0,1.48,1.041,2.718,2.426,3.035v7.615l-6.561,0.022
		l-7.17,7.173H69.82c-0.316-1.386-1.553-2.425-3.033-2.425c-1.721,0-3.121,1.397-3.121,3.114c0,1.721,1.4,3.121,3.121,3.121
		c1.479,0,2.715-1.04,3.031-2.426h2.734l7.172-7.175l29.176-0.101c0.316,1.387,1.555,2.426,3.035,2.426
		c1.719,0,3.115-1.4,3.115-3.121c0-1.717-1.396-3.114-3.115-3.114c-1.482,0-2.721,1.04-3.037,2.425l-21.805,0.075V85.697z
		 M66.787,102.932c-0.957,0-1.736-0.779-1.736-1.736c0-0.953,0.779-1.729,1.736-1.729c0.955,0,1.73,0.776,1.73,1.729
		C68.518,102.152,67.742,102.932,66.787,102.932z M111.936,92.19c0.955,0,1.73,0.776,1.73,1.729c0,0.957-0.775,1.736-1.73,1.736
		c-0.957,0-1.734-0.779-1.734-1.736C110.201,92.967,110.979,92.19,111.936,92.19z M84.668,82.66c0-0.953,0.779-1.729,1.736-1.729
		c0.955,0,1.73,0.776,1.73,1.729c0,0.957-0.775,1.734-1.73,1.734C85.447,84.395,84.668,83.617,84.668,82.66z M49.59,111.07
		l0.004-3.604c1.385-0.317,2.422-1.555,2.422-3.036c0-1.718-1.396-3.116-3.115-3.116c-1.721,0-3.121,1.398-3.121,3.116
		c0,1.481,1.041,2.72,2.43,3.036l-0.004,4.176l7.068,7.068v2.455h1.385v-3.029L49.59,111.07z M47.164,104.431
		c0-0.954,0.779-1.731,1.736-1.731c0.955,0,1.73,0.777,1.73,1.731c0,0.956-0.775,1.734-1.73,1.734
		C47.943,106.165,47.164,105.387,47.164,104.431z M43.676,112.225V97.039h2.188c0.316,1.387,1.557,2.427,3.037,2.427
		c1.479,0,2.715-1.039,3.031-2.425h3.023l6.004-6.008h2.775c0.295,1.414,1.551,2.479,3.053,2.479c1.719,0,3.115-1.399,3.115-3.119
		c0-1.718-1.396-3.115-3.115-3.115c-1.463,0-2.684,1.013-3.02,2.37h-3.383l-6.004,6.008h-2.447
		c-0.316-1.386-1.553-2.426-3.033-2.426s-2.719,1.039-3.037,2.424h-3.572v17.143l5.914,5.914v2.455h1.385v-3.029L43.676,112.225z
		 M66.787,88.663c0.955,0,1.73,0.776,1.73,1.73c0,0.956-0.775,1.734-1.73,1.734c-0.957,0-1.736-0.778-1.736-1.734
		C65.051,89.439,65.83,88.663,66.787,88.663z M48.9,94.615c0.955,0,1.73,0.776,1.73,1.73c0,0.957-0.775,1.735-1.73,1.735
		c-0.957,0-1.736-0.778-1.736-1.735C47.164,95.392,47.943,94.615,48.9,94.615z M59.889,23.264v6.202
		c-1.311,0.369-2.279,1.561-2.279,2.987c0,1.72,1.398,3.12,3.119,3.12c1.717,0,3.115-1.399,3.115-3.12
		c0-1.531-1.113-2.801-2.57-3.061v-5.723h17.367v5.751c-1.385,0.317-2.424,1.553-2.424,3.032c0,1.72,1.398,3.12,3.119,3.12
		c1.719,0,3.115-1.399,3.115-3.12c0-1.48-1.039-2.717-2.426-3.033v-5.75h3.342c0.316,1.388,1.555,2.428,3.037,2.428
		c1.619,0,2.939-1.249,3.086-2.832h4.33l8.738-8.739l0.004-8.596c0.922-0.141,1.633-0.933,1.633-1.895
		c0-1.062-0.861-1.925-1.92-1.925c-1.064,0-1.928,0.864-1.928,1.925c0,0.962,0.713,1.755,1.639,1.895l-0.004,8.356l-8.4,8.401H89.49
		c-0.148-1.581-1.467-2.827-3.086-2.827c-1.48,0-2.719,1.039-3.037,2.423H73.33v-2.192c0.924-0.14,1.635-0.933,1.635-1.895
		c0-1.062-0.863-1.925-1.922-1.925c-1.063,0-1.928,0.864-1.928,1.925c0,0.962,0.715,1.755,1.639,1.896v2.191H60.869l-4.211-4.208V0
		h-1.385v18.65L59.889,23.264z M100.924,4.036c0-0.743,0.605-1.348,1.352-1.348c0.74,0,1.344,0.605,1.344,1.348
		c0,0.743-0.604,1.347-1.344,1.347C101.529,5.383,100.924,4.779,100.924,4.036z M86.404,21.246c0.955,0,1.73,0.776,1.73,1.731
		c0,0.957-0.775,1.736-1.73,1.736c-0.957,0-1.736-0.779-1.736-1.736C84.668,22.022,85.447,21.246,86.404,21.246z M81.066,32.453
		c0,0.957-0.775,1.735-1.73,1.735c-0.957,0-1.734-0.778-1.734-1.735c0-0.955,0.777-1.731,1.734-1.731
		C80.291,30.722,81.066,31.498,81.066,32.453z M71.691,18.198c0-0.743,0.607-1.348,1.352-1.348c0.742,0,1.346,0.605,1.346,1.348
		c0,0.743-0.604,1.347-1.346,1.347C72.299,19.545,71.691,18.94,71.691,18.198z M62.459,32.453c0,0.957-0.777,1.735-1.73,1.735
		c-0.957,0-1.734-0.778-1.734-1.735c0-0.955,0.777-1.731,1.734-1.731C61.682,30.722,62.459,31.498,62.459,32.453z M42.291,6.85
		l0.002,1.8c-1.387,0.316-2.426,1.553-2.426,3.031c0,1.72,1.398,3.12,3.119,3.12c1.719,0,3.115-1.399,3.115-3.12
		c0-1.479-1.039-2.715-2.424-3.031l-0.002-2.375l-5.625-5.625V0h-1.385v1.224L42.291,6.85z M44.717,11.681
		c0,0.957-0.775,1.735-1.73,1.735c-0.957,0-1.734-0.778-1.734-1.735c0-0.954,0.777-1.73,1.734-1.73
		C43.941,9.951,44.717,10.727,44.717,11.681z M87.539,109.812c-0.318-0.235-0.709-0.38-1.135-0.38c-1.063,0-1.928,0.863-1.928,1.924
		c0,1.063,0.865,1.926,1.928,1.926c1.061,0,1.922-0.863,1.922-1.926c0-0.426-0.143-0.816-0.379-1.136l5.824-5.823h15.049
		l-5.416,5.413c-0.318-0.235-0.707-0.378-1.133-0.378c-1.063,0-1.928,0.863-1.928,1.924c0,1.063,0.865,1.926,1.928,1.926
		c1.061,0,1.922-0.863,1.922-1.926c0-0.427-0.145-0.818-0.381-1.138l5.826-5.821h3.629v4.988l-6.709,6.707v5.074h0.578v-4.836
		l6.707-6.707v-5.227h7.467v-0.578H93.533L87.539,109.812z M86.404,112.704c-0.744,0-1.352-0.604-1.352-1.349
		c0-0.742,0.607-1.347,1.352-1.347c0.742,0,1.346,0.604,1.346,1.347C87.75,112.1,87.146,112.704,86.404,112.704z M102.271,112.704
		c-0.744,0-1.352-0.604-1.352-1.349c0-0.742,0.607-1.347,1.352-1.347c0.742,0,1.346,0.604,1.346,1.347
		C103.617,112.1,103.014,112.704,102.271,112.704z M77.393,86.834h-3.184v-0.576h3.184V86.834z M56.256,109.861v-1.59
		c0.924-0.141,1.635-0.934,1.635-1.896c0-1.061-0.861-1.924-1.922-1.924c-1.063,0-1.928,0.863-1.928,1.924
		c0,0.963,0.715,1.756,1.639,1.896v1.83l4.689,4.686v6.379h0.576v-6.617L56.256,109.861z M54.617,106.375
		c0-0.742,0.607-1.348,1.352-1.348c0.742,0,1.346,0.605,1.346,1.348c0,0.743-0.604,1.348-1.346,1.348
		C55.225,107.723,54.617,107.118,54.617,106.375z M84.367,120.968c0.01,0.009,0.084,0.091,0.186,0.198h-0.791l-2.047-2.184h-4.799
		l-2.182,2.184h-0.816l2.76-2.762h5.287L84.367,120.968z M83.945,0.196l1.887,2.012c-0.779,0.246-1.352,0.968-1.352,1.828
		c0,1.061,0.865,1.924,1.928,1.924c1.059,0,1.92-0.863,1.92-1.924c0-1.014-0.787-1.838-1.781-1.911L84.553,0h-0.762
		c0.072,0.069,0.137,0.128,0.184,0.169L83.945,0.196z M87.752,4.036c0,0.743-0.604,1.347-1.344,1.347
		c-0.744,0-1.352-0.604-1.352-1.347c0-0.743,0.607-1.348,1.352-1.348C87.148,2.688,87.752,3.293,87.752,4.036z M82.738,65.961
		c0.941,0,1.721-0.682,1.885-1.578h5.736c0.164,0.896,0.949,1.578,1.893,1.578c1.059,0,1.92-0.863,1.92-1.925
		s-0.861-1.925-1.92-1.925c-0.984,0-1.789,0.743-1.904,1.695h-5.713c-0.113-0.952-0.916-1.695-1.896-1.695
		c-1.063,0-1.928,0.863-1.928,1.925S81.676,65.961,82.738,65.961z M92.252,62.689c0.74,0,1.344,0.604,1.344,1.347
		s-0.604,1.349-1.344,1.349c-0.744,0-1.352-0.605-1.352-1.349S91.508,62.689,92.252,62.689z M82.738,62.689
		c0.74,0,1.344,0.604,1.344,1.347s-0.604,1.349-1.344,1.349c-0.744,0-1.352-0.605-1.352-1.349S81.994,62.689,82.738,62.689z
		 M70.373,118.136c0.141,0.925,0.934,1.637,1.898,1.637c1.059,0,1.92-0.864,1.92-1.925c0-1.062-0.861-1.925-1.92-1.925
		c-0.965,0-1.758,0.712-1.898,1.636h-3.299l-0.002-1.863l-5.762-5.762v-1.662c0.828-0.125,1.48-0.777,1.605-1.607h4.252l3.557,3.557
		c-0.236,0.318-0.381,0.709-0.381,1.135c0,1.063,0.865,1.926,1.928,1.926c1.059,0,1.92-0.863,1.92-1.926
		c0-1.061-0.861-1.924-1.92-1.924c-0.428,0-0.82,0.145-1.139,0.381l-3.727-3.725h-4.49c-0.125-0.83-0.777-1.483-1.605-1.608v-4.79
		L65,95.999h7.557v-7.558c0.924-0.139,1.635-0.932,1.635-1.896c0-1.061-0.861-1.924-1.92-1.924c-1.063,0-1.928,0.863-1.928,1.924
		c0,0.963,0.713,1.755,1.637,1.896v6.98h-7.219l-4.027,4.029v5.029c-0.924,0.141-1.637,0.934-1.637,1.895
		c0,0.962,0.713,1.754,1.637,1.896v1.901l5.762,5.763l0.002,5.23h0.576v-3.03H70.373z M72.271,116.5c0.74,0,1.344,0.604,1.344,1.348
		c0,0.742-0.604,1.348-1.344,1.348c-0.744,0-1.352-0.605-1.352-1.348C70.92,117.104,71.527,116.5,72.271,116.5z M72.271,110.009
		c0.74,0,1.344,0.604,1.344,1.347c0,0.744-0.604,1.349-1.344,1.349c-0.744,0-1.352-0.604-1.352-1.349
		C70.92,110.613,71.527,110.009,72.271,110.009z M70.92,86.545c0-0.742,0.607-1.347,1.352-1.347c0.74,0,1.344,0.604,1.344,1.347
		c0,0.744-0.604,1.349-1.344,1.349C71.527,87.894,70.92,87.289,70.92,86.545z M59.674,106.375c0-0.742,0.607-1.348,1.352-1.348
		c0.74,0,1.344,0.605,1.344,1.348c0,0.743-0.604,1.348-1.344,1.348C60.281,107.723,59.674,107.118,59.674,106.375z M4.475,88.471
		c1.059,0,1.92-0.864,1.92-1.926c0-1.061-0.861-1.924-1.92-1.924c-0.965,0-1.758,0.712-1.898,1.636H0v0.577h2.576
		C2.717,87.758,3.51,88.471,4.475,88.471z M4.475,85.197c0.74,0,1.344,0.605,1.344,1.348c0,0.743-0.604,1.348-1.344,1.348
		c-0.744,0-1.352-0.604-1.352-1.348C3.123,85.803,3.73,85.197,4.475,85.197z M77.412,86.545c0,1.063,0.863,1.926,1.926,1.926
		c1.061,0,1.922-0.863,1.922-1.926c0-1.061-0.861-1.924-1.922-1.924C78.275,84.621,77.412,85.484,77.412,86.545z M80.684,86.545
		c0,0.744-0.604,1.349-1.346,1.349c-0.744,0-1.35-0.604-1.35-1.349c0-0.742,0.605-1.347,1.35-1.347
		C80.08,85.198,80.684,85.803,80.684,86.545z M94.193,113.281c1.061,0,1.922-0.863,1.922-1.926c0-1.061-0.861-1.924-1.922-1.924
		c-1.063,0-1.928,0.863-1.928,1.924C92.266,112.418,93.131,113.281,94.193,113.281z M94.193,110.009
		c0.742,0,1.346,0.604,1.346,1.347c0,0.744-0.604,1.349-1.346,1.349c-0.744,0-1.352-0.604-1.352-1.349
		C92.842,110.613,93.449,110.009,94.193,110.009z M115.668,112.952c0.307,0.208,0.678,0.329,1.076,0.329
		c1.059,0,1.92-0.863,1.92-1.926c0-1.061-0.861-1.924-1.92-1.924c-1.063,0-1.928,0.863-1.928,1.924c0,0.456,0.166,0.869,0.432,1.199
		l-5.961,5.963v2.648h0.576v-2.41L115.668,112.952z M116.744,110.009c0.74,0,1.344,0.604,1.344,1.347
		c0,0.744-0.604,1.349-1.344,1.349c-0.744,0-1.352-0.604-1.352-1.349C115.393,110.613,116,110.009,116.744,110.009z M90.758,119.771
		c0.941,0,1.723-0.682,1.887-1.578h5.734c0.164,0.896,0.949,1.578,1.893,1.578c1.061,0,1.922-0.863,1.922-1.925
		s-0.861-1.925-1.922-1.925c-0.984,0-1.789,0.743-1.904,1.695h-5.711c-0.115-0.952-0.918-1.695-1.898-1.695
		c-1.063,0-1.928,0.863-1.928,1.925S89.695,119.771,90.758,119.771z M100.271,116.5c0.742,0,1.346,0.604,1.346,1.347
		s-0.604,1.349-1.346,1.349c-0.744,0-1.352-0.605-1.352-1.349S99.527,116.5,100.271,116.5z M90.758,116.5
		c0.742,0,1.346,0.604,1.346,1.347s-0.604,1.349-1.346,1.349c-0.744,0-1.352-0.605-1.352-1.349S90.014,116.5,90.758,116.5z
		 M119.127,86.258h-10.492c-0.139-0.924-0.93-1.637-1.891-1.637c-1.063,0-1.928,0.863-1.928,1.924c0,1.063,0.865,1.926,1.928,1.926
		c0.961,0,1.75-0.713,1.891-1.637h10.203v13.001H83.201l-4.154,4.153v5.473c-0.924,0.142-1.635,0.934-1.635,1.895
		c0,1.063,0.863,1.926,1.926,1.926c1.061,0,1.922-0.863,1.922-1.926c0-0.963-0.713-1.756-1.637-1.895v-5.234l3.816-3.814h35.975
		V86.834h1.896v-0.577L119.127,86.258L119.127,86.258z M106.744,87.894c-0.744,0-1.352-0.604-1.352-1.349
		c0-0.742,0.607-1.347,1.352-1.347c0.74,0,1.344,0.604,1.344,1.347C108.088,87.289,107.484,87.894,106.744,87.894z M80.684,111.355
		c0,0.744-0.604,1.349-1.346,1.349c-0.744,0-1.35-0.604-1.35-1.349c0-0.742,0.605-1.347,1.35-1.347
		C80.08,110.009,80.684,110.613,80.684,111.355z M103.174,41.254c0.141,0.923,0.934,1.636,1.898,1.636
		c1.059,0,1.92-0.863,1.92-1.924c0-1.062-0.861-1.925-1.92-1.925c-0.965,0-1.758,0.712-1.898,1.637h-3.619L93.6,46.631v2.837
		c-0.926,0.14-1.639,0.933-1.639,1.896c0,1.061,0.863,1.924,1.928,1.924c1.059,0,1.92-0.863,1.92-1.924
		c0-0.962-0.709-1.755-1.631-1.896v-2.598l5.615-5.617H103.174z M105.072,39.617c0.74,0,1.344,0.605,1.344,1.348
		c0,0.743-0.604,1.347-1.344,1.347c-0.746,0-1.352-0.604-1.352-1.347C103.721,40.222,104.326,39.617,105.072,39.617z M95.232,51.364
		c0,0.743-0.604,1.347-1.344,1.347c-0.746,0-1.352-0.604-1.352-1.347c0-0.743,0.605-1.348,1.352-1.348
		C94.629,50.016,95.232,50.621,95.232,51.364z M23.059,98.74c0.141,0.924,0.934,1.637,1.898,1.637c1.059,0,1.92-0.864,1.92-1.926
		c0-1.061-0.861-1.924-1.92-1.924c-0.965,0-1.758,0.711-1.898,1.635h-4.143v-2.838l-4.564-4.566H3.779v5.449
		c-1.387,0.316-2.426,1.553-2.426,3.03c0,1.72,1.4,3.119,3.119,3.119s3.115-1.399,3.115-3.119c0-1.479-1.039-2.716-2.424-3.031
		v-4.063h8.613l3.754,3.756v25.268h1.385V98.74H23.059z M24.957,97.104c0.74,0,1.344,0.605,1.344,1.348
		c0,0.743-0.604,1.348-1.344,1.348c-0.744,0-1.352-0.604-1.352-1.348C23.605,97.709,24.213,97.104,24.957,97.104z M6.203,99.237
		c0,0.956-0.775,1.734-1.73,1.734s-1.734-0.778-1.734-1.734c0-0.954,0.779-1.729,1.734-1.729S6.203,98.283,6.203,99.237z
		 M25.244,114.889c0.922-0.141,1.633-0.934,1.633-1.896c0-1.061-0.861-1.924-1.92-1.924c-1.063,0-1.928,0.863-1.928,1.924
		c0,0.963,0.715,1.756,1.639,1.896v4.715l1.563,1.563h0.814l-1.801-1.802V114.889z M23.605,112.992c0-0.742,0.607-1.348,1.352-1.348
		c0.74,0,1.344,0.605,1.344,1.348c0,0.743-0.604,1.348-1.344,1.348C24.213,114.34,23.605,113.735,23.605,112.992z M31.621,10.28
		c-0.939,0.128-1.668,0.926-1.668,1.898c0,1.062,0.865,1.925,1.928,1.925c1.059,0,1.92-0.864,1.92-1.925
		c0-0.952-0.695-1.739-1.604-1.892V5.151L27.047,0h-0.814l5.389,5.39V10.28z M33.225,12.178c0,0.743-0.604,1.348-1.344,1.348
		c-0.744,0-1.352-0.605-1.352-1.348c0-0.743,0.607-1.347,1.352-1.347C32.621,10.831,33.225,11.436,33.225,12.178z M11.568,67.591
		c-1.387,0.317-2.426,1.554-2.426,3.032c0,1.721,1.4,3.12,3.119,3.12s3.115-1.399,3.115-3.12c0-1.48-1.039-2.717-2.424-3.033V55.968
		L0,43.015v1.958l11.568,11.568V67.591z M13.992,70.623c0,0.957-0.775,1.735-1.73,1.735s-1.734-0.778-1.734-1.735
		c0-0.955,0.779-1.731,1.734-1.731S13.992,69.668,13.992,70.623z M3.781,63.205c-1.387,0.316-2.428,1.553-2.428,3.031
		c0,1.721,1.4,3.119,3.119,3.119s3.115-1.398,3.115-3.119c0-1.479-1.037-2.714-2.422-3.031V56.74L0,51.574v1.958l3.781,3.781V63.205
		z M6.203,66.236c0,0.957-0.775,1.734-1.73,1.734s-1.734-0.777-1.734-1.734c0-0.953,0.779-1.729,1.734-1.729
		S6.203,65.283,6.203,66.236z M115.441,40.271c-0.316-1.385-1.553-2.423-3.033-2.423c-1.719,0-3.119,1.398-3.119,3.116
		c0,1.72,1.4,3.12,3.119,3.12c1.48,0,2.717-1.04,3.033-2.427h2.551l3.318,3.318v-1.958l-2.744-2.745H115.441z M112.408,42.698
		c-0.955,0-1.734-0.778-1.734-1.735c0-0.955,0.779-1.731,1.734-1.731s1.732,0.776,1.732,1.731
		C114.141,41.919,113.363,42.698,112.408,42.698z M105.775,47.913c-0.316-1.385-1.551-2.423-3.029-2.423
		c-1.721,0-3.121,1.398-3.121,3.116c0,1.72,1.4,3.12,3.121,3.12c1.479,0,2.715-1.04,3.031-2.427h11.297l4.236,4.234v-1.958
		l-3.662-3.661H105.775z M102.746,50.34c-0.957,0-1.736-0.778-1.736-1.735c0-0.955,0.779-1.731,1.736-1.731
		c0.953,0,1.729,0.776,1.729,1.731C104.475,49.562,103.699,50.34,102.746,50.34z"/>
</g>
<g id="Layer_3">
</g>
</svg>
