<?xml version="1.0" encoding="utf-8"?>
<!-- Generator: Adobe Illustrator 16.0.0, SVG Export Plug-In . SVG Version: 6.00 Build 0)  -->
<!DOCTYPE svg PUBLIC "-//W3C//DTD SVG 1.1//EN" "http://www.w3.org/Graphics/SVG/1.1/DTD/svg11.dtd">
<svg version="1.1" xmlns="http://www.w3.org/2000/svg" xmlns:xlink="http://www.w3.org/1999/xlink" x="0px" y="0px"
	 width="730.381px" height="887.641px" viewBox="0 0 730.381 887.641" enable-background="new 0 0 730.381 887.641"
	 xml:space="preserve">
<g id="Layer_1">
	<circle fill="#ED1C24" cx="360.341" cy="416.085" r="39.882"/>
	<g>
		<g>
			<path fill="#ED1C24" d="M419.56,886.99c-2.288,1.319-5.07,0.575-6.391-1.712l-21.429-37.113
				c-1.358-2.353-0.574-5.069,1.712-6.391l23.457-13.543c6.012-3.471,10.785,5.099,4.904,8.496l-18.818,10.864l5.66,9.8
				l16.465-9.506c5.815-3.357,10.757,5.203,4.942,8.56l-16.466,9.505l5.659,9.8l19.929-11.505c5.945-3.434,11.346,4.861,4.941,8.56
				L419.56,886.99z"/>
			<path fill="#58595B" d="M435.245,830.713c-5.816-13.543,12.008-26.883,25.023-25.164c6.518,1.029,5.096,9.43-0.484,8.818
				c-6.607-0.28-18.415,4.623-15.863,12.21c4.423,11.733,29.298-10.82,38.876,6.826c9.125,16.859-14.692,31.135-28.011,28.893
				c-3.175-0.519-4.77-3.431-4.611-5.875c0.718-2.679,2.273-4.362,5.551-3.814c7.471,0.564,22.842-4.652,18.465-14.495
				C467.757,828.93,443.934,850.439,435.245,830.713z"/>
			<path fill="#58595B" d="M474.671,800.109c-1.245-2.157-0.904-5.49,1.84-7.074l15.093-8.715
				c8.495-4.905,19.421-3.633,25.722,7.277c5.961,10.324,1.637,20.487-6.857,25.393l-10.912,6.3l4.98,8.624
				c1.658,2.876,0.773,5.565-1.58,6.924c-2.154,1.245-5.386,0.931-7.045-1.943L474.671,800.109z M485.446,798.854l9.394,16.271
				l10.912-6.3c4.377-2.528,5.614-8.383,3.275-12.434c-2.642-4.573-8.292-6.364-12.669-3.836L485.446,798.854z"/>
			<path fill="#58595B" d="M578.229,745.982l-11.436,6.603c-5.684,3.283-10.512-5.081-4.828-8.363l30.904-17.844
				c5.816-3.358,10.645,5.005,4.83,8.363l-10.846,6.263L605.906,774c3.281,5.684-5.267,10.795-8.625,4.979L578.229,745.982z"/>
			<path fill="#58595B" d="M624.556,761.056c-3.396-5.88,6.078-11.35,9.473-5.47l0.718,1.241c3.357,5.815-5.929,11.611-9.474,5.47
				L624.556,761.056z"/>
			<path fill="#58595B" d="M680.505,729.623c-2.413,6.533-7.154,11.449-12.904,14.77c-13.723,7.922-27.984,5.703-36.963-9.849
				c-7.621-13.198-3.285-29.379,10.502-37.339c5.161-2.981,11.864-4.499,18.217-2.852c6.25,1.619,3.856,10.754-2.064,9.555
				c-3.774-0.958-8.191-0.76-11.588,1.202c-7.906,4.565-11.892,15.317-6.572,24.529c5.584,9.67,15.381,11.854,23.941,6.912
				c3.985-2.301,6.705-5.439,8.104-8.599l-4.641-8.037l-9.801,5.659c-5.815,3.358-9.83-4.954-4.604-7.972l13.068-7.545
				c2.418-1.396,5.696-0.85,6.865,1.176l8.035,13.917C680.78,726.327,680.899,727.74,680.505,729.623z"/>
			<path fill="#58595B" d="M730.156,700.956c-2.413,6.534-7.155,11.449-12.905,14.769c-13.722,7.922-27.983,5.703-36.962-9.848
				c-7.62-13.199-3.285-29.38,10.501-37.34c5.162-2.98,11.865-4.498,18.217-2.852c6.25,1.62,3.857,10.755-2.063,9.556
				c-3.775-0.957-8.192-0.759-11.589,1.203c-7.906,4.564-11.892,15.316-6.573,24.529c5.584,9.671,15.383,11.854,23.941,6.912
				c3.986-2.302,6.705-5.439,8.104-8.6l-4.639-8.037l-9.803,5.659c-5.814,3.357-9.829-4.954-4.603-7.972l13.068-7.545
				c2.418-1.396,5.696-0.849,6.864,1.177l8.036,13.917C730.431,697.66,730.551,699.073,730.156,700.956z"/>
		</g>
		<circle fill="#ED1C24" cx="547.84" cy="783.473" r="19.808"/>
	</g>
	<path fill="#58595B" d="M360.342,92.376l280.34,161.854v323.709l-280.34,161.854L80,577.94l0.002-323.709L360.342,92.376
		 M360.342,0l-40,23.094L40.002,184.949l-40,23.094v46.188L0,577.94v46.188l40,23.094l280.342,161.854l40,23.094l40-23.094
		l280.34-161.854l40-23.094v-46.188V254.23v-46.188l-40-23.094L400.342,23.094L360.342,0L360.342,0z"/>
	<path fill="#58595B" d="M481.954,357.181c-17.858,49.867-51.851,91.357-96.698,118.524c15,3.307,30.313,4.977,45.725,4.977
		c12.82,0,25.773-1.172,38.499-3.483c54.225-9.849,99.977-39.451,131.202-80.028V277.326l-116.065-67.011
		C499.48,256.967,499.417,308.426,481.954,357.181z"/>
	<path fill="#ED1C24" d="M523.785,599.243l76.896-44.396V445.721c-34.674,32.974-77.615,54.777-125.395,63.455
		c-14.634,2.658-29.54,4.006-44.304,4.006c-25.979,0-51.563-4.094-75.959-12.045c5.838,10.05,12.613,19.63,20.31,28.708
		C412.411,573.57,466.446,598.799,523.785,599.243z"/>
	<path fill="#58595B" d="M360.342,693.607l116.176-67.074c-48.755-10.582-93.083-36.881-125.973-75.67
		c-34.25-40.393-53.185-90.57-54.294-142.989c-18.984,20.825-33.843,45.472-43.405,72.173
		c-18.034,50.353-16.707,104.458,3.548,153.546L360.342,693.607z"/>
	<path fill="#58595B" d="M238.725,474.989c17.857-49.864,51.852-91.354,96.703-118.523c-15.001-3.307-30.315-4.977-45.724-4.977
		c-12.821,0-25.775,1.172-38.502,3.485c-52.625,9.559-98.817,37.759-131.201,79.842L120,554.847l116.064,67.009
		C221.199,575.205,221.262,523.745,238.725,474.989z"/>
	<path fill="#58595B" d="M223.941,217.316l-103.939,60.01l-0.001,134.018c32.969-36.199,77.564-61.873,128.52-71.128
		c13.609-2.472,27.465-3.725,41.182-3.725c38.529,0,76.123,9.7,109.796,28.201c-8.542-26.856-22.457-52.045-40.802-73.678
		C324.174,250.299,276.159,224.306,223.941,217.316z"/>
	<path fill="#58595B" d="M244.163,205.641c48.757,10.585,93.088,36.883,125.975,75.668c34.251,40.397,53.185,90.572,54.291,142.988
		c18.985-20.825,33.843-45.472,43.404-72.173c18.035-50.354,16.708-104.457-3.545-153.545l-103.946-60.014L244.163,205.641z"/>
</g>
<g id="Layer_2">
</g>
</svg>
