<?xml version="1.0" encoding="utf-8"?>
<!-- Generator: Adobe Illustrator 21.0.2, SVG Export Plug-In . SVG Version: 6.00 Build 0)  -->
<svg version="1.1" id="Layer_1" xmlns="http://www.w3.org/2000/svg" xmlns:xlink="http://www.w3.org/1999/xlink" x="0px" y="0px"
	 viewBox="0 0 3004 3467" style="enable-background:new 0 0 3004 3467;" xml:space="preserve">
<style type="text/css">
	.st0{fill:#FFFFFF;}
	.st1{fill:#58595B;}
	.st2{fill:none;}
</style>
<g>
	<g id="XMLID_1_">
		<g>
			<path class="st0" d="M2674.6,1072.5c-0.2,221-0.2,442-0.2,663c0,220.3-0.1,440.6,0.4,660.8c0,10.5-3.5,15.8-12.3,20.9
				c-318.3,183.4-636.5,367.1-954.7,550.7c-64.3,37.2-128.7,74.2-192.9,111.6c-6.9,4-12,4-18.9,0c-144.4-83.6-289-167-433.5-250.4
				c-213.2-123-426.4-246-639.6-369c-26.2-15.1-52.4-30.5-78.8-45.3c-6.1-3.4-9-7.4-8.1-14.2c0.2-2,0-4,0-6c0-439.3,0-878.7,0-1318
				c0-17.9-2.3-14.1,13.2-23.1C701.1,850.4,1053,647.2,1404.9,444.1c30-17.3,60.2-34.3,89.9-52.1c7.6-4.5,13.1-4.6,20.8-0.1
				c95.6,55.5,191.4,110.7,287.2,166c214.9,124,429.8,248.1,644.7,372.1c72.4,41.8,144.7,83.7,217.3,125.2
				C2672.3,1059.5,2674.6,1064.2,2674.6,1072.5z"/>
			<path class="st1" d="M3006.1,868c0,578,0,1156,0,1734c-4.3,2.5-8.6,5.1-12.9,7.6c-124,71.5-248,143.1-371.9,214.6
				c-230.1,132.8-460.1,265.6-690.2,398.4c-139,80.2-277.9,160.4-416.8,240.7c-3.1,1.7-5.6,4.4-8.3,6.7c-0.7,0-1.3,0-2,0
				c-2.6-2.3-4.9-5.1-7.8-6.8c-54.4-31.6-108.9-63-163.4-94.5c-230.7-133.1-461.3-266.2-692-399.3
				c-209-120.6-418.1-241.3-627.1-361.9c-3.7-2.1-7.8-3.7-11.6-5.5c0-578,0-1156,0-1734c3.6-1.3,7.5-2,10.8-3.9
				c149.1-86,298.2-172,447.3-258c196.7-113.5,393.3-227,590-340.5C1198.3,180,1346.5,94.5,1494.7,8.9c3.3-1.9,6.2-4.6,9.3-6.9
				c0.7,0,1.3,0,2,0c2.6,1.9,5.1,4.1,7.9,5.7c223.2,128.9,446.5,257.8,669.8,386.6c271.1,156.5,542.3,313,813.5,469.5
				C3000,865.4,3003.1,866.6,3006.1,868z M2674.4,1735.5c0-221,0-442,0.2-663c0-8.3-2.3-13-9.8-17.3
				c-72.6-41.5-144.9-83.4-217.3-125.2c-214.9-124-429.8-248.1-644.7-372.1c-95.8-55.3-191.6-110.5-287.2-166
				c-7.7-4.5-13.2-4.4-20.8,0.1c-29.7,17.8-59.9,34.8-89.9,52.1C1053,647.2,701.1,850.4,349.2,1053.5c-15.5,9-13.2,5.2-13.2,23.1
				c0,439.3,0,878.7,0,1318c0,2,0.2,4,0,6c-0.9,6.8,2,10.8,8.1,14.2c26.4,14.8,52.6,30.2,78.8,45.3c213.2,123,426.4,246,639.6,369
				c144.5,83.4,289.1,166.8,433.5,250.4c6.9,4,12,4,18.9,0c64.2-37.4,128.6-74.4,192.9-111.6c318.2-183.6,636.4-367.3,954.7-550.7
				c8.8-5.1,12.3-10.4,12.3-20.9C2674.3,2176.1,2674.4,1955.8,2674.4,1735.5z"/>
		</g>
		<g>
		</g>
	</g>
</g>
<path class="st2" d="M0,0"/>
</svg>
