<?xml version="1.0" encoding="utf-8"?>
<!-- Generator: Adobe Illustrator 16.0.0, SVG Export Plug-In . SVG Version: 6.00 Build 0)  -->
<!DOCTYPE svg PUBLIC "-//W3C//DTD SVG 1.1//EN" "http://www.w3.org/Graphics/SVG/1.1/DTD/svg11.dtd">
<svg version="1.1" xmlns="http://www.w3.org/2000/svg" xmlns:xlink="http://www.w3.org/1999/xlink" x="0px" y="0px"
	 width="283.769px" height="287.596px" viewBox="0 0 283.769 287.596" enable-background="new 0 0 283.769 287.596"
	 xml:space="preserve">
<g id="Layer_1">
	<path fill="#58595B" d="M283.769,12.575l-12.027-7.207h-17.5l-2.73-2.634l-7.657,7.659l-6.563-7.659h-33.896L194.104,0h-5.471
		l-7.655,11.484h-9.837l-3.284-6.116h-9.845L161.299,0h-46.485l-1.086,5.368l-14.22,3.93l-24.054,1.095l-3.826-5.025H-0.001v10.491
		l3.284,6.011L4.37,43.744l-4.371,13.121v30.067l6.018,25.703l-3.281,4.921l0.548,7.655l6.015,13.125l-9.299,14.754v26.798
		L8.2,186.44v25.154l-8.201,10.39v48.665l9.843,3.277l5.47,3.83l32.255-4.379l16.95,3.284l16.4-2.735h10.934
		c0,0,7.657,2.735,11.486,3.277c3.828,0.553,3.828-0.542,4.92-1.637c1.096-1.091,10.389,12.03,12.029,12.03s9.842-6.358,9.842-6.358
		l10.115,2.532l2.464-2.532l6.019,2.532l6.883-2.532h53.26l7.102-5.672l38.824,5.672v-7.861c0,0,18.587,1.099,20.227,1.099
		c1.639,0,8.748,6.763,8.748,6.763v-117.21l-3.281-37.723l-10.389-13.121l5.469-8.751l8.201-6.017V41.008l-6.559-15.301l6.559-3.837
		V12.575z M173.874,59.058l11.476-1.647l25.152-7.651l18.589,12.026v11.622l-5.463,31.026L167.857,61.24L173.874,59.058z
		 M82.56,237.414H56.864l-21.871-21.448l17.5-45.377c0,0,55.764,53.578,55.764,55.771L82.56,237.414z M232.378,236.742
		c0,2.738-32.809-3.822-32.809-3.822L28.976,55.774l23.518-9.303l199.018,136.144C250.419,201.209,232.378,234.015,232.378,236.742z
		"/>
</g>
<g id="Layer_2">
</g>
</svg>
