<?xml version="1.0" encoding="utf-8"?>
<!-- Generator: Adobe Illustrator 16.0.0, SVG Export Plug-In . SVG Version: 6.00 Build 0)  -->
<!DOCTYPE svg PUBLIC "-//W3C//DTD SVG 1.1//EN" "http://www.w3.org/Graphics/SVG/1.1/DTD/svg11.dtd">
<svg version="1.1" xmlns="http://www.w3.org/2000/svg" xmlns:xlink="http://www.w3.org/1999/xlink" x="0px" y="0px"
	 width="279.958px" height="326.711px" viewBox="0 0 279.958 326.711" enable-background="new 0 0 279.958 326.711"
	 xml:space="preserve">
<g id="Layer_1">
	<path fill="#58595B" d="M42.815,301.362l36.226-22.226h16.475l10.7-14.824l20.595-8.237l15.639-4.937l26.346-15.646l6.589-11.523
		l18.115-17.293l10.706-12.352l5.762-25.522h28.817l-7.408-4.23l-5.764-16.359l-3.291-21.407l-2.471-13.178l-16.473-28.815
		c0,0-9.879-16.475-11.52-18.939c-1.65-2.472-20.588-20.59-20.588-20.59h-12.359h-18.109l-22.236,8.237l-17.285,6.587L73.281,76.575
		L58.462,95.517l0.82,32.938l4.943,12.349l23.053,27.998l10.709,4.521l13.168-8.752l8.238-11.416l-7.414-9.063l-7.408-13.167
		l8.232-9.891l14.007-3.29h15.639l15.651,19.761l9.053,23.058l4.934,12.759l-2.461,11.117l-14.002,18.943l-13.175,4.94l-8.231-3.297
		l-14.005,14.82c0,0-9.88,4.123-15.642,4.944c-5.759,0.818-26.354,4.933-28.822,2.468c-2.468-2.468-11.523-11.523-13.991-13.174
		c-2.476-1.639-18.942-19.76-18.942-19.76l-15.643-14.828l-14.828-10.694l-7.406-13.178l4.938-20.582l-0.823-24.708L0,103.75v-7.412
		V83.99c0,0,9.054,0.822,11.521-0.829c2.472-1.644,14.007-9.056,15.651-11.523c1.648-2.469,8.235-15.646,8.235-15.646
		s3.288-15.646,4.113-18.114c0.823-2.469,20.591-18.11,20.591-18.11L69.987,6.59L88.923,0l10.711,4.94L112.804,0h21.414
		l20.994,7.416l33.351,6.583h18.936l11.525,10.702l10.708,11.531l15.645,8.237l4.936,12.352c0,0,2.47,21.407,7.418,25.522
		c4.936,4.115,9.88,23.876,9.88,23.876l7.41,15.646v25.522l4.938,28.816v25.53l-4.107,25.526c0,0-4.949,8.234-7.422,10.709
		c-2.472,2.468-17.287,11.53-17.287,11.53l-6.588,4.937l1.645,15.643l-7.414,12.352l-20.584,4.122l-28.814,14.81l-14.826,4.943
		l-23.881,11.531l-15.639,7.412c0,0-16.475,3.293-22.236,0c-5.762-3.297-15.638-6.59-15.638-6.59l-25.53-3.294l-18.121-4.943
		L42.815,301.362z"/>
</g>
<g id="Layer_2">
</g>
</svg>
