<?xml version="1.0" encoding="utf-8"?>
<!-- Generator: Adobe Illustrator 16.0.0, SVG Export Plug-In . SVG Version: 6.00 Build 0)  -->
<!DOCTYPE svg PUBLIC "-//W3C//DTD SVG 1.1//EN" "http://www.w3.org/Graphics/SVG/1.1/DTD/svg11.dtd">
<svg version="1.1" xmlns="http://www.w3.org/2000/svg" xmlns:xlink="http://www.w3.org/1999/xlink" x="0px" y="0px"
	 width="253.419px" height="327.291px" viewBox="0 0 253.419 327.291" enable-background="new 0 0 253.419 327.291"
	 xml:space="preserve">
<g id="Layer_1">
	<path id="cs_go_1_" fill-rule="evenodd" clip-rule="evenodd" fill="#58595B" d="M162.645,321.933
		c-10.896-0.213-21.052,1.195-31.236-2.13c-4.663-1.52-10.238-0.263-16.693-0.263c-0.023-4.521-1.229-9.092,0.138-12.688
		c5.04-13.238,1.878-25.917-1.265-38.73c-2.238-9.182-2.91-18.275-0.102-27.589c1.216-3.982,0.9-8.412,1.378-13.736
		c-9.993,0.874-14.838-5.155-18.852-12.575c-1.814-3.357-4.621-6.176-6.437-9.52c-2.138-3.911-4.154-6.972-9.424-7.408
		c-2.131-0.171-3.975-3.882-6.518-6.586c-3.609,7.387-7.357,15.111-11.13,22.803c-0.568,1.167-1.784,2.303-1.734,3.407
		c0.477,10.956-7.216,17.613-13.194,25.055c-2.352,2.92-3.163,5.817-3.436,9.387c-0.283,3.72-1.035,7.51-2.303,11.027
		c-2.289,6.343-5.036,12.537-7.742,18.729c-0.983,2.252-1.928,5.456-3.731,6.203c-5.431,2.304-5.706,7.767-6.282,11.536
		c-1.188,7.875-2.09,16.219,1.995,23.757c-5.505,5.117-5.505,5.117-24.356,4.247c-4.297-10.176,0.63-19.835,2.076-29.666
		c0.184-1.216,1.676-2.342,1.582-3.436c-1.206-13.491,1.906-26.062,7.684-38.151c2.718-5.676,4.986-11.565,7.686-17.252
		c1.813-3.822,4.102-7.387,6.039-11.128c0.77-1.469,2.066-3.475,1.6-4.621c-4.094-9.922,1.49-18.964,2.252-28.398
		c0.171-2.05,0.678-4.248,0.184-6.164c-2.223-8.696-4.572-16.977,2.278-25.238c1.824-2.199,0.335-7.329,0.07-11.09
		c-0.403-5.928-1.419-11.848-1.419-17.765c0-1.836,2.465-3.66,3.73-5.402c-1.904-1.26-4.346-2.88-6.272-4.178
		c0-8.017-0.315-15.346,0.141-22.631c0.202-3.217,1.986-6.337,3.294-10.209c3.446-0.174,7.145-0.365,11.678-0.588
		c0-7.479,0.141-14.291-0.041-21.101c-0.262-9.965,4.165-18.132,9.993-25.532c6.062-7.685,12.354-8.806,23.638-4.896
		c0-4.886,0.049-9.486-0.012-14.1C77.678,6.773,96.674-7.355,116.102,4.16c2.555,1.512,4.864,3.435,8.323,5.908
		c-1.461,7.805,10.64,18.355-4.409,25.38c0,2.737,0,5.544,0,8.949c3.9-0.893,7.104-2.32,10.233-2.188
		c5.476,0.212,4.421-4.044,5.811-7.459c3.364,5.259,7.764,7.6,13.947,7.489c17.259-0.295,34.52-0.152,51.792-0.062
		c3.273,0.031,6.527,0.609,10.623,1.012c0.279-2.785,0.708-6.718,1.103-10.661c0.458-0.021,0.894-0.032,1.339-0.052
		c0.272,3.124-0.152,6.529,1.004,9.286c1.145,2.744,3.871,4.833,5.756,6.99c9.842,4.786,20.15-4.752,31.796,1.217
		c-5.686,3.872-10.763,3.803-14.949,3.013c-8.384-1.573-16.583,0.981-24.832-0.134c-9.711,9.133-21.792,2.261-33.774,5.485
		c-2.045,2.024-5.099,5.039-8.685,8.564c0.648,4.886,1.308,9.823,2.047,15.449c-1.46,2.309-4.925,5.358-5.168,8.653
		c-0.812,11.129-9.377,15.297-17.587,21.446c-9.587-3.829-19.732-7.885-30.121-12.021c-0.527,0.963-1.511,2.746-2.605,4.713
		c2.018,1.714,4.672,3.114,5.939,5.312c1.165,2.028,1.327,4.976,1.064,7.418c-0.852,8.039,0.811,16.056-1.734,24.254
		c-2.036,6.59-4.651,9.58-11.392,8.932c-0.608-0.05-1.307,0.892-2.078,1.43c-0.923,5.087,1.713,9.062,4.702,12.63
		c9.985,11.887,16.532,25.571,21.914,39.995c2.818,7.529,8.798,13.863,7.045,23.026c-1.602,8.332,1.471,17.161-2.381,25.391
		c-0.681,1.459-0.761,3.484-0.387,5.087c2.26,9.639-0.335,18.841-1.685,28.288c-0.573,4.007,1.786,9.011,4.157,12.692
		c3.477,5.412,8.554,9.589,14.859,11.724C162.605,312.961,164.926,315.709,162.645,321.933z"/>
</g>
<g id="Layer_2">
</g>
</svg>
