<?xml version="1.0" encoding="utf-8"?>
<!-- Generator: Adobe Illustrator 16.0.0, SVG Export Plug-In . SVG Version: 6.00 Build 0)  -->
<!DOCTYPE svg PUBLIC "-//W3C//DTD SVG 1.1//EN" "http://www.w3.org/Graphics/SVG/1.1/DTD/svg11.dtd">
<svg version="1.1" xmlns="http://www.w3.org/2000/svg" xmlns:xlink="http://www.w3.org/1999/xlink" x="0px" y="0px"
	 width="233.906px" height="327.255px" viewBox="0 0 233.906 327.255" enable-background="new 0 0 233.906 327.255"
	 xml:space="preserve">
<g id="Layer_1">
	<path fill="#58595B" d="M21.41,200.936V90.203h49.648v89.681L92,199.22l-35.833,36.602L21.41,200.936z M71.338,21.408L21.41,71.748
		h71.68v201.186l23.863,23.973l23.874-23.973V71.748h71.675L162.59,21.408h-45.637H71.338z M212.502,200.936V90.203h-49.65v89.681
		l-20.943,19.336l35.84,36.602L212.502,200.936z M233.906,62.933v146.844L116.953,327.255L0,209.777V62.933L62.418,0h54.535h54.539
		L233.906,62.933z M223.207,67.34l-56.175-56.635H66.876L10.701,67.34v138.016l106.252,106.725l106.254-106.725V67.34z"/>
</g>
<g id="Layer_2">
</g>
</svg>
