<?xml version="1.0" encoding="utf-8"?>
<!-- Generator: Adobe Illustrator 16.0.0, SVG Export Plug-In . SVG Version: 6.00 Build 0)  -->
<!DOCTYPE svg PUBLIC "-//W3C//DTD SVG 1.1//EN" "http://www.w3.org/Graphics/SVG/1.1/DTD/svg11.dtd">
<svg version="1.1" xmlns="http://www.w3.org/2000/svg" xmlns:xlink="http://www.w3.org/1999/xlink" x="0px" y="0px"
	 width="284.391px" height="284.393px" viewBox="0 0 284.391 284.393" enable-background="new 0 0 284.391 284.393"
	 xml:space="preserve">
<g id="Layer_1">
	<g>
		<path fill="#58595B" d="M53.627,31.059C77.936,11.663,108.682,0,142.194,0c33.515,0,64.26,11.663,88.569,31.059l-28.353,31.958
			c-16.751-12.76-37.578-20.436-60.217-20.436c-22.638,0-43.465,7.675-60.214,20.436L53.627,31.059z M242.032,40.996l-28.366,31.958
			c17.389,17.945,28.145,42.35,28.145,69.248c0,21.155-6.679,40.762-17.968,56.905l-48.961-48.961l-25.404-64.337v99.395
			l42.908,42.914c-14.763,8.651-31.883,13.692-50.191,13.692c-18.402,0-35.588-5.093-50.396-13.836l42.77-42.771V85.809
			l-25.404,64.337l-48.762,48.76c-11.207-16.107-17.823-35.637-17.823-56.704c0-26.898,10.758-51.303,28.146-69.248L42.358,40.996
			C16.226,66.782,0,102.584,0,142.202c0,78.536,63.663,142.19,142.194,142.19c78.535,0,142.196-63.654,142.196-142.19
			C284.391,102.584,268.165,66.782,242.032,40.996z"/>
	</g>
</g>
<g id="Layer_2">
</g>
</svg>
