<?xml version="1.0" encoding="utf-8"?>
<!-- Generator: Adobe Illustrator 16.0.0, SVG Export Plug-In . SVG Version: 6.00 Build 0)  -->
<!DOCTYPE svg PUBLIC "-//W3C//DTD SVG 1.1//EN" "http://www.w3.org/Graphics/SVG/1.1/DTD/svg11.dtd">
<svg version="1.1" xmlns="http://www.w3.org/2000/svg" xmlns:xlink="http://www.w3.org/1999/xlink" x="0px" y="0px"
	 width="182.779px" height="268.373px" viewBox="0 0 182.779 268.373" enable-background="new 0 0 182.779 268.373"
	 xml:space="preserve">
<g id="Layer_1">
	<g>
		<path fill="#58595B" d="M134.133,42.747c0,23.606-19.138,53.688-42.745,53.688c-23.608,0-42.747-30.082-42.747-53.688
			C48.641,19.137,67.779,0,91.388,0C114.995,0,134.133,19.137,134.133,42.747z"/>
		<path fill="#58595B" d="M130.74,85.063c-10.125,13.001-23.996,22.153-39.352,22.153c-15.354,0-29.225-9.151-39.35-22.153
			C21.266,98.606,0,115.699,0,159.44c0,22.889,5.822,67.898,15.781,98.584c22.998,6.644,48.516,10.349,75.391,10.349
			c0.074,0,0.146-0.003,0.217-0.003c0.072,0,0.143,0.003,0.217,0.003c26.876,0,52.394-3.705,75.392-10.349
			c9.958-30.686,15.782-75.695,15.782-98.584C182.779,115.699,161.512,98.606,130.74,85.063z"/>
	</g>
</g>
<g id="Layer_2">
</g>
</svg>
