<?xml version="1.0" encoding="utf-8"?>
<!-- Generator: Adobe Illustrator 16.0.0, SVG Export Plug-In . SVG Version: 6.00 Build 0)  -->
<!DOCTYPE svg PUBLIC "-//W3C//DTD SVG 1.1//EN" "http://www.w3.org/Graphics/SVG/1.1/DTD/svg11.dtd">
<svg version="1.1" xmlns="http://www.w3.org/2000/svg" xmlns:xlink="http://www.w3.org/1999/xlink" x="0px" y="0px"
	 width="487.018px" height="339.062px" viewBox="0 0 487.018 339.062" enable-background="new 0 0 487.018 339.062"
	 xml:space="preserve">
<g id="Layer_1">
	<g>
		<path fill="#58595B" d="M311.912,114.826c-6.299-7.043-12.052-13.801-17.255-20.268v0.003
			c-24.742-13.156-43.625-26.407-43.625-26.407s-10.65-4.4-2.727,19.097c10.681,31.872,61.598,46.289,94.789,60.219
			C333.957,138.444,322.901,127.107,311.912,114.826z"/>
		<path fill="#58595B" d="M253.614,123.695c0,0-16.376-0.982,5.357,19.643c15.461,15.266,62.341,17.441,97.973,17.516
			c-13.825-5.844-29.989-12.652-33.559-14.038c-15.074-5.856-31.893-12.396-46.484-20.803
			C262.725,124.576,253.614,123.695,253.614,123.695z"/>
		<path fill="#58595B" d="M398.782,112.483C342.791,103.64,273.228,1.644,273.228,1.644s-7.919-10.518-8.445,21.663
			c-0.244,45.827,104.407,139.76,104.407,139.76c29.738,27.752,24.965,58.684,24.965,58.684
			c-3.4,31.541-33.187,40.604-33.187,40.604c-30.778,6.729-36.409,18.455-36.409,18.455c-13.668,25.229,10.342,28.563,19.004,27.174
			c27.75-4.338,105.814-51.176,143.455-75.096l-0.002-111.945C469.788,121.23,433.236,120.664,398.782,112.483z"/>
		<path fill="#58595B" d="M238.716,251.811c-10.68-31.87-61.596-46.288-94.789-60.219c9.139,9.027,20.193,20.363,31.183,32.644
			c6.299,7.044,12.051,13.802,17.254,20.267V244.5c24.742,13.158,43.626,26.408,43.626,26.408S246.641,275.307,238.716,251.811z"/>
		<path fill="#58595B" d="M163.635,192.248c15.075,5.855,31.893,12.395,46.484,20.802c14.18,1.437,23.289,2.317,23.289,2.317
			s16.376,0.982-5.358-19.643c-15.46-15.266-62.343-17.441-97.973-17.518C143.903,184.053,160.065,190.861,163.635,192.248z"/>
		<path fill="#58595B" d="M88.241,226.578c55.987,8.844,125.554,110.841,125.554,110.841s7.92,10.517,8.443-21.663
			c0.245-45.828-104.405-139.76-104.405-139.76c-29.741-27.751-24.963-58.684-24.963-58.684
			c3.397-31.541,33.186-40.604,33.186-40.604c30.777-6.729,36.405-18.455,36.405-18.455c13.668-25.23-10.341-28.564-19.001-27.172
			C115.707,35.418,37.641,82.258,0,106.178l0.002,111.943C17.23,217.831,53.784,218.397,88.241,226.578z"/>
	</g>
</g>
<g id="Layer_2">
</g>
</svg>
